<svg version="1.1" xmlns="http://www.w3.org/2000/svg" xmlns:xlink="http://www.w3.org/1999/xlink" width="23.45088" height="21.30176" viewBox="0,0,23.45088,21.30176"><g transform="translate(-228.17455,-169.49913)"><g data-paper-data="{&quot;isPaintingLayer&quot;:true}" fill-rule="nonzero" stroke-linecap="butt" stroke-linejoin="miter" stroke-miterlimit="10" stroke-dasharray="" stroke-dashoffset="0" style="mix-blend-mode: normal"><path d="M228.17456,190.80089c0,0 1.23777,-3.92751 1.23777,-6.98799c0,-3.42585 -1.23777,-13.79487 -1.23777,-13.79487c0,0 3.0406,0.24769 5.30961,0.1967c3.44166,-0.07734 14.63075,-0.71559 14.63075,-0.71559l-0.31624,5.22059l3.82675,1.79331c0,0 -1.97933,8.31349 -2.39593,10.35372c-0.17986,0.88082 -0.16264,2.78692 -0.16264,2.78692c0,0 -9.41323,-0.68142 -13.05965,-0.48848c-2.24848,0.11897 -7.83266,1.6357 -7.83266,1.6357z" fill="#000000" stroke="none" stroke-width="0"/><path d="M228.87456,190.00089c0,0 0.83777,-3.32751 0.83777,-6.388c0,-3.42585 -0.83777,-13.19487 -0.83777,-13.19487c0,0 2.5406,0.44769 4.80962,0.3967c3.44166,-0.07734 13.83075,-0.81558 13.83075,-0.81558l-0.41625,5.02059l4.02676,1.8933c0,0 -2.17934,8.21349 -2.59593,10.25373c-0.17986,0.88082 0.13736,1.78692 0.13736,1.78692c0,0 -8.91322,-0.48142 -12.55964,-0.28849c-2.24848,0.11897 -7.23266,1.3357 -7.23266,1.3357z" fill="#747474" stroke="none" stroke-width="0"/><path d="M229.97036,171.30531c0,0 4.30394,0.5234 7.07435,0.43287c2.86477,-0.09362 9.84065,-0.98564 9.84065,-0.98564l-0.83536,4.74747l4.2,1.7c0,0 -1.67374,4.81158 -2.08219,6.45416c-0.43941,1.76709 -0.46819,3.80215 -0.46819,3.80215c0,0 -9.74057,0.22509 -12.82749,0.44895c-2.50893,0.18195 -4.32213,0.79474 -4.32213,0.79474c0,0 0.59788,-3.8846 0.54747,-5.90118c-0.04957,-1.98285 -1.12711,-11.4935 -1.12711,-11.4935z" fill="#b4b4b4" stroke="none" stroke-width="0"/><path d="M244.55,183.10001c0,2.57026 -2.68644,3.4 -4.15,3.4c-1.46356,0 -4.31117,-0.73034 -4.35,-3.1c-0.0536,-3.27134 2.78644,-3.7 4.25,-3.7c1.46356,0 4.25,0.42974 4.25,3.4z" fill="#4c4c4c" stroke="#989898" stroke-width="1"/><path d="M234.98334,185.60001v-5.2c0,0 0.19466,-0.4 0.81667,-0.4c0.61089,0 0.88333,0.4 0.88333,0.4v5.2c0,0 -0.36583,0.58013 -0.88333,0.6c-0.66267,0.02544 -0.81667,-0.6 -0.81667,-0.6z" fill="#676767" stroke="#4c4c4c" stroke-width="0.5"/><path d="M231.46667,179.00001c0,0 0.08748,-0.86909 0.06499,-1.26276c-0.02193,-0.38386 -0.19832,-1.07057 -0.19832,-1.07057c0,0 4.52824,0.11273 6.80352,0.02923c2.53997,-0.09321 7.72981,-0.56256 7.72981,-0.56256c0,0 0.93389,0.46685 1.55333,0.67333c0.6461,0.21537 2.24667,0.59333 2.24667,0.59333c0,0 -8.12573,0.53779 -11.4581,0.83075c-2.47645,0.21771 -6.7419,0.76925 -6.7419,0.76925z" fill="#cccccc" stroke="none" stroke-width="0"/><path d="M245.42564,173.82308c0,0.61601 -0.6957,1.42308 -1.26923,1.42308c-0.57353,0 -1.34615,-0.88399 -1.34615,-1.5c0,-0.61601 0.6957,-1.34615 1.26923,-1.34615c0.57353,0 1.34615,0.80707 1.34615,1.42308z" fill="#808080" stroke="none" stroke-width="0"/><path d="M244.65641,173.74615c0,0.53104 0.07466,1.19231 -0.30769,1.19231c-0.38235,0 -0.69231,-0.50742 -0.69231,-1.03846c0,-0.53104 0.07919,-1.26923 0.46154,-1.26923c0.38235,0 0.53846,0.58434 0.53846,1.11538z" fill="#e4e4e4" stroke="none" stroke-width="0"/><path d="M233.19487,175.78462c0,0 1.00581,-1.07844 1.07476,-1.64379c0.05696,-0.46704 -0.69014,-1.51006 -0.69014,-1.51006c0,0 3.03778,0.23227 4.45359,0.12542c1.29052,-0.0974 3.70026,-0.7408 3.70026,-0.7408c0,0 -0.27127,1.17562 -0.141,1.74883c0.12599,0.55437 0.91023,1.63579 0.91023,1.63579c0,0 -3.46245,-0.16462 -5.07779,-0.09787c-1.47432,0.06092 -4.2299,0.48248 -4.2299,0.48248z" fill="#cccccc" stroke="none" stroke-width="0"/></g></g></svg>