<svg version="1.1" xmlns="http://www.w3.org/2000/svg" xmlns:xlink="http://www.w3.org/1999/xlink" width="23.86769" height="22.82281" viewBox="0,0,23.86769,22.82281"><g transform="translate(-227.456,-168.91969)"><g data-paper-data="{&quot;isPaintingLayer&quot;:true}" fill-rule="nonzero" stroke-linejoin="miter" stroke-miterlimit="10" stroke-dasharray="" stroke-dashoffset="0" style="mix-blend-mode: normal"><path d="M228.99609,191.64053c0,0 0.94332,-4.00843 0.71653,-7.0605c-0.25386,-3.41643 -2.25661,-13.66522 -2.25661,-13.66522c0,0 3.05059,0.02169 5.30958,-0.1973c3.42647,-0.33217 14.5375,-1.79781 14.5375,-1.79781l0.07149,5.22967l3.94912,1.5048c0,0 -1.35783,8.43731 -1.6221,10.5028c-0.11409,0.89173 0.04433,2.79131 0.04433,2.79131c0,0 -9.43785,0.01801 -13.05994,0.48063c-2.23348,0.28527 -7.68991,2.21163 -7.68991,2.21163z" fill="#000000" stroke="none" stroke-width="0" stroke-linecap="butt"/><path d="M229.63488,190.79085c0,0 0.58889,-3.38044 0.3621,-6.43251c-0.25386,-3.41643 -1.81325,-13.09651 -1.81325,-13.09651c0,0 2.56679,0.25819 4.82579,0.0392c3.42647,-0.33217 13.73229,-1.83825 13.73229,-1.83825l-0.04307,5.03763l4.15599,1.5897c0,0 -1.56471,8.35241 -1.82896,10.4179c-0.11409,0.89173 0.2694,1.77183 0.2694,1.77183c0,0 -8.92439,0.18041 -12.54648,0.64302c-2.23348,0.28527 -7.1138,1.86799 -7.1138,1.86799z" fill="#747474" stroke="none" stroke-width="0" stroke-linecap="butt"/><path d="M229.34226,172.06547c0,0 4.33089,0.20303 7.08697,-0.09255c2.84995,-0.30565 9.74056,-1.71216 9.74056,-1.71216l-0.48126,4.79632l4.31443,1.38409c0,0 -1.31259,4.92238 -1.5982,6.59071c-0.30725,1.79479 -0.18515,3.82639 -0.18515,3.82639c0,0 -9.6971,0.94628 -12.75895,1.39828c-2.48855,0.36737 -4.25135,1.11284 -4.25135,1.11284c0,0 0.30837,-3.91823 0.10867,-5.92552c-0.19637,-1.97373 -1.97572,-11.37838 -1.97572,-11.37838z" fill="#b4b4b4" stroke="none" stroke-width="0" stroke-linecap="butt"/><path d="M244.75584,182.74735c0.19046,2.5632 -2.42711,3.58973 -3.88664,3.69818c-1.45953,0.10845 -4.35343,-0.40886 -4.56776,-2.76913c-0.29587,-3.25838 2.5046,-3.89631 3.96413,-4.00477c1.45953,-0.10845 4.27016,0.11362 4.49026,3.07572z" fill="#343434" stroke="none" stroke-width="0" stroke-linecap="butt"/><path d="M245.43536,188.46945c-0.21937,0.18086 2.20787,1.80839 2.20787,1.80839l-11.65599,1.18721c0,0 0.04591,-1.89096 0.79064,-2.25938c1.86586,-0.92305 -0.55871,-2.49743 -0.55871,-3.24089c0,-0.10707 0.34309,-1.10219 0.77298,-1.35118c0.51112,-0.29603 1.12318,0.1579 1.12318,0.1579c0,0 0.44202,-0.66871 0.98538,-0.71739c0.89041,-0.07978 1.40187,1.05844 1.40187,1.05844c0,0 1.45597,-0.86237 2.07035,-0.85716c0.45488,0.00386 0.85637,0.70885 0.85637,0.70885c0,0 0.26456,-0.54365 0.74053,-0.81953c0.86496,-0.50133 1.09179,1.35179 1.09179,1.35179c0,0 0.95692,-0.06288 1.18109,0.38082c0.74871,1.48191 -0.82323,2.44034 -1.00734,2.59213z" fill="#f3f3f3" stroke="#989898" stroke-width="0.5" stroke-linecap="butt"/><path d="M235.40074,185.94939l-0.38533,-5.1857c0,0 0.16448,-0.41332 0.78478,-0.45942c0.60921,-0.04527 0.91055,0.33344 0.91055,0.33344l0.38533,5.18571c0,0 -0.32184,0.60564 -0.83644,0.66381c-0.65896,0.07448 -0.85888,-0.53784 -0.85888,-0.53784z" fill="#676767" stroke="#4c4c4c" stroke-width="0.5" stroke-linecap="butt"/><path d="M231.40466,179.62814c0,0 0.02284,-0.87319 -0.02876,-1.26411c-0.05032,-0.38118 -0.27711,-1.05293 -0.27711,-1.05293c0,0 4.52415,-0.22314 6.78698,-0.47502c2.52608,-0.28117 7.66687,-1.13381 7.66687,-1.13381c0,0 0.96591,0.39636 1.59895,0.55637c0.66028,0.1669 2.28446,0.42521 2.28446,0.42521c0,0 -8.06353,1.13845 -11.36503,1.67755c-2.45351,0.40062 -6.66636,1.26674 -6.66636,1.26674z" fill="#cccccc" stroke="none" stroke-width="0" stroke-linecap="butt"/><path d="M244.88899,173.43103c0.04565,0.61432 -0.58833,1.47073 -1.16028,1.51323c-0.57196,0.0425 -1.40796,-0.78181 -1.45361,-1.39612c-0.04565,-0.61432 0.59403,-1.394 1.16599,-1.4365c0.57196,-0.0425 1.40225,0.70509 1.4479,1.31941z" fill="#191919" stroke="none" stroke-width="0" stroke-linecap="butt"/><path d="M242.93389,174.09209c0,0 0.81248,0.60842 0.70851,0.13677c-0.06294,-0.28547 -0.84223,-0.82612 -0.66343,-0.89546c0.10442,-0.04049 1.17028,0.8327 1.26229,0.73104c0.14302,-0.15803 -0.70134,-1.30585 -0.62972,-1.36445c0.22071,-0.18058 1.16634,0.32819 1.16634,0.32819" fill="none" stroke="#cccccc" stroke-width="0.5" stroke-linecap="round"/><path d="M244.80078,174.13676c-0.53636,-0.20312 -0.66805,-1.08123 -0.44989,-1.65731c0.21816,-0.57609 0.84958,-1.23473 1.38594,-1.0316c0.53636,0.20313 1.19529,1.34262 0.97712,1.9187c-0.21816,0.57609 -1.37682,0.97333 -1.91317,0.77021z" fill="#808080" stroke="none" stroke-width="0" stroke-linecap="butt"/><path d="M245.40069,174.02037c-0.35757,-0.13541 -0.24551,-0.38638 -0.05743,-0.88301c0.18807,-0.49662 0.30135,-1.0478 0.65892,-0.91239c0.35757,0.13541 0.35218,0.51495 0.1641,1.01157c-0.18807,0.49662 -0.40802,0.91925 -0.76559,0.78384z" fill="#e4e4e4" stroke="none" stroke-width="0" stroke-linecap="butt"/><path d="M232.88983,176.29352c0,0 0.92313,-1.15001 0.95,-1.71891c0.0222,-0.46998 -0.80014,-1.45477 -0.80014,-1.45477c0,0 3.04664,0.00652 4.45064,-0.20495c1.27975,-0.19277 3.63519,-1.01297 3.63519,-1.01297c0,0 -0.18341,1.19249 -0.01102,1.75447c0.16673,0.54351 1.02895,1.56384 1.02895,1.56384c0,0 -3.46514,0.09241 -5.07109,0.27868c-1.46575,0.17001 -4.18251,0.7946 -4.18251,0.7946z" fill="#cccccc" stroke="none" stroke-width="0" stroke-linecap="butt"/><path d="M232.32995,181.65765c1.77198,-0.34651 4.31652,0.54937 4.41097,1.82037c0.09444,1.271 -0.56433,2.72263 -3.70511,3.52664c-2.48292,0.63561 -3.93318,-0.50665 -4.02763,-1.77765c-0.09444,-1.271 0.77688,-3.07171 3.32177,-3.56936z" fill="none" stroke="#989898" stroke-width="1" stroke-linecap="butt"/></g></g></svg>