<svg version="1.1" xmlns="http://www.w3.org/2000/svg" xmlns:xlink="http://www.w3.org/1999/xlink" width="182.43832" height="171.97282" viewBox="0,0,182.43832,171.97282"><g transform="translate(-174.72425,-118.94023)"><g data-paper-data="{&quot;isPaintingLayer&quot;:true}" fill-rule="nonzero" stroke-linecap="butt" stroke-linejoin="miter" stroke-miterlimit="10" stroke-dasharray="" stroke-dashoffset="0" style="mix-blend-mode: normal"><path d="M182.35579,190.39585c0,0 -3.97324,-36.59218 -5.30677,-43.79254c-2.96099,-15.98781 -2.2499,-19.65395 -2.2499,-19.65395c0,0 46.53279,4.92321 69.69316,3.7815c24.13294,-1.18965 74.46968,-11.79063 74.46968,-11.79063l1.46806,38.24383l36.73256,12.81327l-13.72055,120.91573c0,0 -42.95565,-3.46426 -85.11999,-5.67795c-23.0583,-1.2106 -73.47436,-0.89009 -73.47436,-0.89009z" fill="#000000" stroke="none" stroke-width="0"/><path d="M187.16667,281.83333c0,0 0.65324,-49.19169 -1.0382,-80.43388c-1.71032,-31.59097 -8.29513,-71.23278 -8.29513,-71.23278c0,0 55.56868,3.65988 67.01614,2.86863c9.46603,-0.65429 70.98583,-10.59506 70.98583,-10.59506l1.68783,37.73198l35.97686,11.32778l-13.33333,116.66667c0,0 -56.76858,-4.435 -82.9727,-5.84193c-23.05943,-1.23809 -70.0273,-0.4914 -70.0273,-0.4914z" fill="#e1e1e1" stroke="none" stroke-width="0"/><path d="M307.33333,144.76782c0,4.05009 -3.98967,9.33334 -9.83333,9.33334c-6.17699,0 -8.16667,-6.61658 -8.16667,-10.66667c0,-4.05009 4.32301,-9 8.83333,-9c4.51033,0 9.16667,6.28324 9.16667,10.33333z" fill="#404040" stroke="none" stroke-width="0"/><path d="M298.53659,152.53461c-6.40575,0 -7.61392,-5.78349 -7.61392,-8.72901c0,-2.94552 3.10478,-7.54224 6.50897,-7.43948c5.89858,0.17806 8.45865,5.6798 8.45865,8.62531c0,2.94551 -2.94794,7.54317 -7.3537,7.54317z" fill="#cccccc" stroke="none" stroke-width="0"/><path d="M301.46996,144.44711c-0.01145,2.50797 1.46206,6.81355 -3.05807,6.81355c-2.85347,0 -3.54074,-4.11754 -3.54074,-6.69487c0,-2.57733 0.39528,-6.19966 3.24875,-6.19966c2.85347,0 3.36205,3.45424 3.35006,6.08098z" fill="#ededed" stroke="none" stroke-width="0"/><path d="M188.33334,190.43449c0,0 0.20911,-6.81722 -0.27071,-10.296c-0.39055,-2.83144 -2.39596,-9.03734 -2.39596,-9.03734c0,0 68.47028,-4.93996 84.04785,-5.80978c24.2421,-1.35362 48.28548,-1.52355 48.28548,-1.52355l32.33333,9c0,0 -14.79239,4.0721 -22.9679,3.89385c-25.27298,-0.55104 -69.41483,5.72564 -92.04391,7.81233c-20.31347,1.87317 -46.98819,5.96048 -46.98819,5.96048z" fill="#f3f3f3" stroke="none" stroke-width="0"/><path d="M319,238.60115c0.34202,26.14093 -29.7697,37.83334 -47.16667,37.83334c-30.89579,0 -39.58739,-40.11186 -40.8319,-26.61849c-0.41878,4.54048 -5.74559,5.23405 -9.26253,6.37706c-6.21865,2.02106 -5.07224,-14.14977 -5.07224,-18.5919c0,-3.4599 -0.08937,-18.68407 2.56387,-22.14564c2.13531,-2.78584 8.04378,-3.64231 9.43143,0.96972c4.02309,13.37117 4.34723,-19.63664 44.83803,-19.99075c27.38754,-0.23952 45.16667,16.69017 45.5,42.16666z" fill="#c1c1c1" stroke="none" stroke-width="0"/><path d="M227.83334,219.93449c0,1.7489 -2.84314,2.91666 -4.5,2.91666c-1.65686,0 -4,0.58223 -4,-1.16666c0,-1.7489 0.42647,-5.33334 4.08333,-6.08334c1.62307,-0.33288 4.41667,2.58444 4.41667,4.33334z" fill="#a5a5a5" stroke="none" stroke-width="0"/><path d="M228.08334,231.25c0.55613,4.26852 -2.92893,3 -5,3c-2.07107,0 -4.08107,1.26023 -4,-2.75c0.17211,-8.51335 2.42893,-6 4.5,-6c2.07107,0 3.9173,1.27748 4.5,5.75z" fill="#a5a5a5" stroke="none" stroke-width="0"/><path d="M223.83334,253c-4.90686,2.5 -5.5,0.23528 -4.75,-6.5c0.27505,-2.47001 3.09314,-2.5 4.75,-2.5c1.65686,0 4.90427,-0.23343 5,3.5c0.16637,6.48797 -3.52371,4.74785 -5,5.5z" fill="#a5a5a5" stroke="none" stroke-width="0"/><path d="M228.83334,239.625c0,5.69975 -0.38535,2.4115 -4.75,2.625c-6.13639,0.30016 -4.5,3.32475 -4.75,-2.625c-0.06087,-1.44846 -0.12336,-3.625 4.5,-3.625c4.87336,0 5,2.17525 5,3.625z" fill="#a5a5a5" stroke="none" stroke-width="0"/><path d="M223.08334,217.75001c-3.68545,1.16666 -1.67565,4.25662 -2.75,4c-1.83334,-0.43791 -1.60213,-3.66666 2.91666,-5.5c1.40736,-0.57099 3.25,1.06209 3.25,2.16666c0,1.10457 -1.96869,-1.12503 -3.41666,-0.66666z" fill="#ffffff" stroke="none" stroke-width="0"/><path d="M222.41667,162.58333l-1.5,-18.83333c0,0 20.79601,-2.86441 28.32055,-3.24963c8.60724,-0.44064 28.84611,-2.75037 28.84611,-2.75037c0,0 1.10678,10.1219 1.22591,14.02364c0.09955,3.26016 -0.55925,7.8097 -0.55925,7.8097c0,0 -24.2841,0.4383 -31.38831,1.65314c-7.77893,1.33023 -24.94502,1.34686 -24.94502,1.34686z" fill="#f5f5f5" stroke="none" stroke-width="0"/><path d="M313.41667,237.75c0,17.12083 -22.72258,34.33333 -38.41667,34.33333c-15.69409,0 -39.75,-16.87917 -39.58333,-40.83333c0.11912,-17.12041 23.38924,-29.83333 39.08333,-29.83333c15.69409,0 38.91667,19.21251 38.91667,36.33333z" fill="#4d4d4d" stroke="#e4e4e4" stroke-width="1"/><path fill="#a5a5a5" stroke="none" stroke-width="0"/><path d="M287.87772,268.16633c-12.29129,6.30195 -19.83252,2.49004 -26.21429,-0.14286c-7.61785,-3.14286 -18.21429,-11.89731 -18.21429,-16c0,-2.31075 10.14511,-6.24407 10.14511,-6.24407c0,0 3.20446,3.60241 6.21203,3.38693c3.98789,-0.28571 9.51952,-4.65078 9.51952,-4.65078l8.41161,3.0618c0,0 12.9444,19.15127 10.1403,20.58898z" fill="#8b0000" stroke="none" stroke-width="0"/><path d="M285.73486,265.16633c0,2.13024 -10.63307,11.85714 -29.42857,-2.14286c-1.89822,-1.41391 -10.71429,-8.29833 -10.71429,-10.42857c0,-2.13024 4.20449,-4.57143 6.57143,-4.57143c1.5042,0 5.70129,5.23051 15.05776,0.57285c1.12883,-0.56194 4.54537,-1.64491 7.49338,0.23493c3.61154,2.30295 11.02028,15.90758 11.02028,16.33508z" fill="#bc0000" stroke="none" stroke-width="0"/><path d="M249.82058,253.66633l4.05714,-3.5l-2.90226,6.89344c0,0 0.88861,-3.78294 0.1877,-2.83099c-0.88188,1.19774 -3.45687,-0.56245 -3.45687,-0.56245l4.45714,-4.35714z" fill="#7e3535" stroke="none" stroke-width="0"/></g></g></svg>